HIERARCHY
ROOT root
{
	OFFSET 0.000000 0.000000 0.000000
	CHANNELS 6 Xposition Yposition Zposition Zrotation Yrotation Xrotation
	JOINT lhip
	{
		OFFSET 0.058581 -0.082280 -0.017664
		CHANNELS 3 Zrotation Yrotation Xrotation
		JOINT lknee
		{
			OFFSET 0.043451 -0.386469 0.008037
			CHANNELS 3 Zrotation Yrotation Xrotation
			JOINT lankle
			{
				OFFSET -0.014790 -0.426874 -0.037428
				CHANNELS 3 Zrotation Yrotation Xrotation
				JOINT ltoe
				{
					OFFSET 0.041054 -0.060286 0.122042
					CHANNELS 3 Zrotation Yrotation Xrotation
					End Site
					{
						OFFSET 0.000000 0.000000 0.000000
					}
				}
			}
		}
	}
	JOINT rhip
	{
		OFFSET -0.060310 -0.090513 -0.013543
		CHANNELS 3 Zrotation Yrotation Xrotation
		JOINT rknee
		{
			OFFSET -0.043257 -0.383688 -0.004843
			CHANNELS 3 Zrotation Yrotation Xrotation
			JOINT rankle
			{
				OFFSET 0.019056 -0.420046 -0.034562
				CHANNELS 3 Zrotation Yrotation Xrotation
				JOINT rtoe
				{
					OFFSET -0.034840 -0.062106 0.130323
					CHANNELS 3 Zrotation Yrotation Xrotation
					End Site
					{
						OFFSET 0.000000 0.000000 0.000000
					}
				}
			}
		}
	}
	JOINT lowerback
	{
		OFFSET 0.004439 0.124404 -0.038385
		CHANNELS 3 Zrotation Yrotation Xrotation
		JOINT upperback
		{
			OFFSET 0.004488 0.137956 0.026820
			CHANNELS 3 Zrotation Yrotation Xrotation
			JOINT chest
			{
				OFFSET -0.002265 0.056032 0.002855
				CHANNELS 3 Zrotation Yrotation Xrotation
				JOINT lowerneck
				{
					OFFSET -0.013390 0.211636 -0.033468
					CHANNELS 3 Zrotation Yrotation Xrotation
					JOINT upperneck
					{
						OFFSET 0.010113 0.088937 0.050410
						CHANNELS 3 Zrotation Yrotation Xrotation
						End Site
						{
							OFFSET 0.000000 0.000000 0.000000
						}
					}
				}
				JOINT lclavicle
				{
					OFFSET 0.071702 0.114000 -0.018898
					CHANNELS 3 Zrotation Yrotation Xrotation
					JOINT lshoulder
					{
						OFFSET 0.122921 0.045205 -0.019046
						CHANNELS 3 Zrotation Yrotation Xrotation
						JOINT lelbow
						{
							OFFSET 0.255332 -0.015649 -0.022946
							CHANNELS 3 Zrotation Yrotation Xrotation
							JOINT lwrist
							{
								OFFSET 0.265709 0.012698 -0.007375
								CHANNELS 3 Zrotation Yrotation Xrotation
								End Site
								{
									OFFSET 0.000000 0.000000 0.000000
								}
							}
						}
					}
				}
				JOINT rclavicle
				{
					OFFSET -0.082954 0.112472 -0.023707
					CHANNELS 3 Zrotation Yrotation Xrotation
					JOINT rshoulder
					{
						OFFSET -0.113228 0.046853 -0.008472
						CHANNELS 3 Zrotation Yrotation Xrotation
						JOINT relbow
						{
							OFFSET -0.260127 -0.014369 -0.031269
							CHANNELS 3 Zrotation Yrotation Xrotation
							JOINT rwrist
							{
								OFFSET -0.269108 0.006794 -0.006027
								CHANNELS 3 Zrotation Yrotation Xrotation
								End Site
								{
									OFFSET 0.000000 0.000000 0.000000
								}
							}
						}
					}
				}
			}
		}
	}
}
MOTION
Frames: 11
Frame Time: 0.033333
-0.048429 -0.047802 0.734302 -170.396673 -8.754859 105.795970 7.863910 -1.787540 -71.826180 -4.427180 15.787860 83.451260 7.041974 11.055957 -36.182180 0.000000 -0.000000 0.000000 -26.786225 -24.900135 -66.303234 1.058176 -11.336638 92.520322 7.302850 -6.321809 -31.801814 0.000000 -0.000000 0.000000 13.344036 -2.614438 62.377618 -6.047150 4.325680 -11.948653 -3.677882 4.771103 0.897823 0.078147 -21.973006 -19.429690 1.463288 -14.976141 3.753823 -33.226346 -14.371332 -0.060589 -40.197955 0.931326 18.829683 -2.190504 -48.404392 11.719223 12.714706 -11.602265 -20.415410 16.626622 35.502642 2.298729 -17.327635 23.956639 -38.860451 -14.893990 9.623901 -62.479154 1.390325 8.939656 -19.275955 
-0.047690 -0.046776 0.736369 -170.680911 -8.666086 105.775528 7.784861 -1.657078 -71.245785 -4.153630 15.599145 83.137931 6.911218 10.972619 -36.170441 0.000000 -0.000000 0.000000 -26.479904 -24.422887 -66.159231 1.066732 -11.214932 92.159210 7.142636 -6.556854 -31.767174 0.000000 -0.000000 0.000000 12.936188 -2.412601 62.151618 -5.643912 4.178661 -11.632478 -3.498902 4.486477 0.971980 0.292196 -21.014494 -20.128834 0.952485 -14.945033 4.505643 -33.194468 -14.104326 -0.161821 -40.098357 0.926418 18.486986 -2.248141 -48.646644 11.117943 11.366325 -11.371861 -19.929599 18.470617 34.963528 2.456218 -16.718621 24.930560 -38.753345 -15.918226 13.138601 -63.416117 3.246370 9.864330 -20.208526 
-0.046725 -0.045273 0.740340 -170.796365 -8.437805 105.432910 7.558235 -1.550940 -70.257739 -4.032447 15.055613 82.593264 6.561905 10.761161 -36.295441 0.000000 -0.000000 0.000000 -26.256857 -23.825744 -65.313172 0.835478 -11.213457 91.594174 7.181890 -6.337888 -32.028144 0.000000 -0.000000 0.000000 12.569101 -2.343141 62.188262 -5.036533 3.851954 -11.382993 -3.284989 3.981113 0.875236 0.269079 -19.632618 -20.136940 0.466628 -15.259289 4.801297 -33.263873 -13.474713 -0.170314 -40.038270 0.834876 18.106429 -2.362394 -48.463364 11.697699 10.868854 -10.955257 -21.137022 20.626793 33.606658 3.201932 -14.530463 26.552662 -36.191500 -18.593767 18.561942 -61.950772 2.178756 10.388724 -24.759034 
-0.045268 -0.043206 0.745838 -170.987336 -8.204717 105.109649 7.234488 -1.328899 -68.977836 -4.053402 14.459201 81.681764 6.255994 10.612755 -36.490439 0.000000 -0.000000 0.000000 -25.951483 -23.124524 -64.318335 0.624008 -11.163976 90.708111 7.252557 -6.121865 -31.984610 0.000000 -0.000000 0.000000 12.182197 -2.299734 62.320944 -4.439970 3.474548 -11.329266 -3.108107 3.555284 0.967578 0.046699 -18.526257 -20.490047 0.443679 -15.471810 4.812278 -33.626503 -13.237448 -0.419062 -39.728539 0.979354 18.082308 -2.266268 -48.116084 11.755420 10.835972 -10.287924 -21.585083 22.173022 32.309437 3.358494 -10.694256 27.986979 -31.820169 -23.181024 24.189474 -61.737477 0.512013 9.241368 -28.271444 
-0.044298 -0.041312 0.752369 -171.186631 -8.068696 104.832918 6.937245 -1.314138 -67.648511 -3.725196 13.955678 80.673034 5.950156 10.228631 -36.531852 0.000000 -0.000000 0.000000 -25.717400 -22.560073 -63.345066 0.360945 -11.182030 89.686357 7.275092 -5.769629 -31.746395 0.000000 -0.000000 0.000000 11.813708 -2.260815 62.279180 -3.936645 3.017397 -11.279930 -2.986788 3.292417 1.067342 -0.251665 -17.219781 -20.719682 0.125125 -15.704158 5.195828 -33.910500 -12.877930 -0.303105 -39.439740 0.573508 17.568124 -2.519241 -47.575165 10.708624 9.411988 -11.001789 -20.115222 24.182235 31.089718 2.961830 -8.545047 29.654788 -30.386536 -24.619201 28.674632 -61.794204 0.144934 9.785857 -27.244431 
-0.043186 -0.040408 0.758716 -171.391623 -7.567802 105.054183 6.680773 -0.841667 -66.957812 -3.640878 13.113730 79.545273 6.032664 10.014156 -36.186778 0.000000 -0.000000 0.000000 -24.956433 -22.119906 -62.936476 0.277993 -11.434767 88.521141 7.197890 -5.780712 -31.455401 0.000000 -0.000000 0.000000 11.587626 -2.219465 61.609883 -3.493625 2.918235 -11.408409 -2.794377 2.985049 1.356821 -0.697747 -16.079534 -20.905521 -0.220504 -15.624795 5.768087 -33.895842 -12.254852 -0.753244 -39.709585 0.174585 17.320792 -3.300666 -46.788173 11.352244 8.899265 -10.467882 -19.753722 24.911336 29.324051 2.626935 -3.855413 30.630937 -25.744807 -28.440888 33.533454 -61.673276 -0.737219 9.558441 -29.479625 
-0.042559 -0.039831 0.765173 -171.733180 -7.378297 105.257360 6.461237 -0.682230 -66.148364 -3.681841 12.677112 78.224049 5.916567 9.953549 -35.846799 0.000000 -0.000000 0.000000 -24.634074 -21.742676 -62.462231 0.018765 -11.706107 87.300599 7.160064 -5.448565 -31.195412 0.000000 -0.000000 0.000000 11.304898 -2.245509 60.888348 -3.256803 2.732909 -11.432264 -2.874590 2.696474 1.485116 -0.951943 -14.820498 -20.761316 -0.601966 -15.510728 6.081196 -33.902525 -11.706542 -0.803730 -39.665654 0.014199 17.031971 -3.686611 -46.951548 11.775328 8.153000 -10.082658 -20.300013 25.790166 27.748384 2.841912 0.576211 31.101362 -21.694966 -32.138349 37.529652 -61.592318 -1.574605 8.710528 -30.943407 
-0.041946 -0.038854 0.772306 -172.225344 -7.316499 105.080821 6.210406 -0.596020 -64.837052 -3.618120 12.368985 76.849318 5.754068 9.842721 -35.510923 0.000000 -0.000000 0.000000 -24.438721 -21.358796 -61.546325 -0.272472 -11.763777 85.923005 7.136035 -4.898788 -30.852733 0.000000 -0.000000 0.000000 10.938805 -2.163986 60.836250 -3.023291 2.393148 -11.581345 -2.799396 2.414553 1.616192 -1.239843 -13.555815 -20.857158 -0.973612 -15.504292 6.456909 -33.701533 -11.206274 -1.174930 -40.077986 -0.173193 16.885284 -3.909096 -46.813084 11.905292 8.008052 -9.789161 -20.366960 26.113668 26.637988 2.247963 4.883235 31.709717 -17.582118 -34.802032 39.815173 -61.253096 -3.000632 7.505551 -31.476640 
-0.041015 -0.037664 0.779270 -172.639548 -7.197562 104.734560 5.986028 -0.489340 -63.365451 -3.551518 12.029673 75.534665 5.604795 9.806146 -35.360369 0.000000 -0.000000 0.000000 -24.141237 -20.948236 -60.395349 -0.088138 -11.679435 84.378583 7.139062 -4.617253 -30.633673 0.000000 -0.000000 0.000000 10.577154 -1.969348 61.135962 -2.769517 2.186521 -12.088735 -2.427786 2.138276 1.990032 -1.599464 -12.706908 -20.929965 -1.459026 -14.966515 6.706502 -33.775421 -10.741530 -1.225364 -40.248096 -0.704178 16.800997 -4.210183 -46.754040 11.737173 8.159587 -9.933326 -20.220421 26.863509 25.982861 1.806963 6.749637 32.193480 -15.211359 -34.426569 41.277543 -60.499166 -4.063734 7.389499 -31.894826 
-0.040109 -0.036650 0.785460 -172.957364 -7.140589 104.403319 5.790730 -0.360233 -62.020989 -3.607329 11.793848 74.376439 5.359788 9.754526 -35.279229 0.000000 -0.000000 0.000000 -23.777467 -20.682234 -59.421611 0.409342 -11.451182 82.986881 7.278390 -4.687453 -30.552674 0.000000 -0.000000 0.000000 10.212638 -1.736027 61.508696 -2.499485 2.028507 -12.495327 -2.104430 1.868621 2.350211 -1.784732 -11.820466 -21.434613 -2.066256 -14.667911 7.214148 -33.954881 -10.218322 -1.363883 -40.204289 -1.234246 16.649308 -4.823430 -46.917041 11.756416 8.535185 -10.033799 -19.669213 28.089600 25.361319 1.563710 7.300948 32.750573 -13.888601 -33.670033 42.608550 -59.772004 -4.056867 7.592041 -30.663649 
-0.039302 -0.035750 0.791036 -173.304201 -7.092206 103.827362 5.477477 -0.052897 -60.539499 -3.487304 11.537747 73.419919 4.966964 9.493711 -35.247777 0.000000 -0.000000 0.000000 -23.532075 -20.326495 -58.276845 0.562939 -11.124603 81.801737 7.489415 -4.286897 -30.592845 0.000000 -0.000000 0.000000 9.921128 -1.638752 62.415577 -2.450168 1.888489 -12.629978 -1.921272 1.760151 2.188416 -1.943300 -10.863566 -21.730813 -2.620781 -14.466698 7.720884 -33.985899 -9.960435 -1.488159 -40.152000 -1.301075 16.668665 -4.943846 -47.308800 12.068347 8.352390 -10.581791 -20.171714 28.871947 25.031378 1.375846 7.312761 33.374366 -13.553962 -32.212216 43.335180 -57.910305 -4.032684 7.548529 -29.918419 
